<?xml version="1.0" ?><!DOCTYPE svg  PUBLIC '-//W3C//DTD SVG 1.1//EN'  'http://www.w3.org/Graphics/SVG/1.1/DTD/svg11.dtd'><svg style="enable-background:new 0 0 499.996 500.004;" version="1.1" viewBox="0 0 499.996 500.004" xml:space="preserve" xmlns="http://www.w3.org/2000/svg" xmlns:xlink="http://www.w3.org/1999/xlink"><g id="finance-scale"><g><path d="M249.998,500.004C111.931,500.004,0,388.073,0,250.002C0,111.926,111.931,0,249.998,0    c138.063,0,249.998,111.926,249.998,250.002C499.996,388.073,388.061,500.004,249.998,500.004z" style="fill:#FF9554;"/><linearGradient gradientUnits="userSpaceOnUse" id="_x31_3_1_" x1="120.9053" x2="379.0911" y1="250.0019" y2="250.0019"><stop offset="0.5" style="stop-color:#FFFFFF"/><stop offset="0.5" style="stop-color:#EBEBEB"/></linearGradient><path d="M289.694,360.933h-31.072V202.665c12.303-3.209,21.884-13.111,24.594-25.611    h36.444l-40.393,78.008h6.154l40.393-78.008h5.411l40.397,78.008h6.145l-40.393-78.008h34.14c4.043,0,7.308-3.269,7.308-7.316    c0-4.051-3.265-7.325-7.308-7.325h-88.341c-2.769-12.41-12.312-22.226-24.551-25.427v-12.662c0-2.03-1.65-3.679-3.688-3.679    h-9.727c-2.038,0-3.688,1.65-3.688,3.679v12.645c-12.282,3.175-21.863,13-24.637,25.444h-88.657c-4.051,0-7.32,3.274-7.32,7.325    c0,4.047,3.269,7.316,7.32,7.316h34.538l-40.397,78.008h6.145l40.397-78.008h5.41l40.401,78.008h6.145l-40.393-78.008h36.359    c2.722,12.53,12.35,22.444,24.688,25.633v158.246h-31.072c-5.094,0-9.214,4.128-9.214,9.213c0,5.085,4.12,9.214,9.214,9.214    h79.247c5.09,0,9.214-4.128,9.214-9.214C298.908,365.061,294.784,360.933,289.694,360.933z M230.72,169.823    c0-10.662,8.645-19.299,19.307-19.299c10.654,0,19.299,8.637,19.299,19.299s-8.645,19.307-19.299,19.307    C239.366,189.131,230.72,180.485,230.72,169.823z M185.379,295.07h-27.526c-20.329,0-36.812-16.491-36.812-36.812    c0-0.021,0-0.043,0-0.06h101.14c0,0.017,0,0.039,0,0.06C222.182,278.579,205.716,295.07,185.379,295.07z M379.091,258.258    c0,20.32-16.474,36.812-36.812,36.812h-27.525c-20.329,0-36.812-16.491-36.812-36.812c0-0.021,0.008-0.043,0.008-0.06h101.136    C379.087,258.216,379.091,258.237,379.091,258.258z" id="_x31_3" style="fill:url(#_x31_3_1_);"/></g></g><g id="Layer_1"/></svg>