<?xml version="1.0" ?><!DOCTYPE svg  PUBLIC '-//W3C//DTD SVG 1.1//EN'  'http://www.w3.org/Graphics/SVG/1.1/DTD/svg11.dtd'><svg enable-background="new 0 0 512 512" id="Layer_1" version="1.1" viewBox="0 0 512 512" xml:space="preserve" xmlns="http://www.w3.org/2000/svg" xmlns:xlink="http://www.w3.org/1999/xlink"><linearGradient gradientUnits="userSpaceOnUse" id="SVGID_1_" x1="256" x2="256" y1="512" y2="-9.094947e-013"><stop offset="0" style="stop-color:#02AAB0"/><stop offset="1" style="stop-color:#00CDAC"/></linearGradient><circle cx="256" cy="256" fill="url(#SVGID_1_)" r="256"/><path d="M390.1,125c-2.2-3.3-5.9-5.1-10.5-5.1c-3,0-6.4,0.8-10.1,2.3l-231.1,97.5c-7,3-13.4,8.9-16.9,16  c-2.4,4.8-2.4,10.3,0.1,14.7c2.4,4.4,6.7,7.2,11.7,7.7l109.4,11.1L254,378.6c0.8,7.8,7.3,13.6,15.1,13.6c2.5,0,5-0.6,7.4-1.8  c7-3.5,13-9.8,16-16.9l97.5-231.1C393.7,133.4,392.1,127.9,390.1,125z M379.6,138.2l-97.5,231.1c-2,4.6-6.1,9-10.7,11.3  c-0.8,0.4-1.6,0.6-2.4,0.6c-1.8,0-3.8-1.1-4.1-3.7l-11.6-113.9c-0.3-2.6-2.3-4.7-4.9-4.9L134.5,247c-1.9-0.2-2.8-1.3-3.1-2  c-0.7-1.3-0.7-2.9,0.1-4.5c2.3-4.7,6.7-8.8,11.3-10.7l231.1-97.5c2.9-1.2,4.8-1.5,5.8-1.5c0.8,0,1.2,0.2,1.3,0.2  C381.1,131.4,381.6,133.5,379.6,138.2z" fill="#FFFFFF"/></svg>