<?xml version="1.0" encoding="iso-8859-1"?>
<!-- Generator: Adobe Illustrator 19.0.0, SVG Export Plug-In . SVG Version: 6.00 Build 0)  -->
<svg version="1.1" id="Layer_1" xmlns="http://www.w3.org/2000/svg" xmlns:xlink="http://www.w3.org/1999/xlink" x="0px" y="0px"
	 viewBox="0 0 512 512" style="enable-background:new 0 0 512 512;" xml:space="preserve">
<path style="fill:#EC5565;" d="M0,256.006C0,397.402,114.606,512.004,255.996,512C397.394,512.004,512,397.402,512,256.006
	C512.009,114.61,397.394,0,255.996,0C114.606,0,0,114.614,0,256.006z"/>
<path style="fill:#D94453;" d="M502.122,326.396c-0.284-0.284-0.561-0.576-0.854-0.854
	c-0.519-0.547-212.837-212.865-213.385-213.385c-8.048-8.467-19.341-13.817-31.915-13.817c-24.343,0-44.146,19.804-44.146,44.146
	c0,11.69,4.667,22.226,12.117,30.118c0.489,0.573,24.445,24.429,24.706,24.719v25.975h-89.182c-22.113,0-43.02,20.226-43.02,41.622
	v39.776c-20.863,3.505-36.822,21.644-36.822,43.481c0,12.577,5.348,23.874,13.817,31.922
	c0.519,0.547,128.438,128.466,128.986,128.986c0.244,0.258,0.499,0.5,0.748,0.748c10.756,1.378,21.696,2.166,32.827,2.166
	C372.97,512.002,471.535,433.545,502.122,326.396z"/>
<path style="fill:#F6F6F6;" d="M395.535,304.706v-39.785c0-21.395-20.908-41.621-43.02-41.621h-89.182v-37.339
	c20.835-3.523,36.773-21.652,36.773-43.473c0-24.343-19.803-44.146-44.139-44.146c-24.343,0-44.146,19.803-44.146,44.146
	c0,21.837,15.961,39.975,36.823,43.481V223.3h-89.182c-22.113,0-43.02,20.226-43.02,41.621v39.777
	c-20.862,3.505-36.823,21.644-36.823,43.481c0,24.343,19.803,44.146,44.146,44.146c24.336,0,44.139-19.803,44.139-44.146
	c0-21.821-15.938-39.95-36.773-43.473v-39.785c0-13.341,14.294-26.932,28.331-26.932h89.182v66.717
	c-20.835,3.523-36.773,21.651-36.773,43.473c0,24.343,19.803,44.146,44.139,44.146c24.343,0,44.146-19.803,44.146-44.146
	c0-21.837-15.961-39.975-36.823-43.481v-66.709h89.182c14.036,0,28.331,13.591,28.331,26.932v39.777
	c-20.862,3.505-36.823,21.644-36.823,43.481c0,24.343,19.803,44.146,44.146,44.146c24.336,0,44.139-19.803,44.139-44.146
	C432.308,326.357,416.37,308.229,395.535,304.706z M226.51,142.489c0-16.245,13.212-29.457,29.457-29.457
	c16.238,0,29.45,13.212,29.45,29.457c0,16.238-13.212,29.45-29.45,29.45C239.722,171.938,226.51,158.726,226.51,142.489z
	 M153.215,348.178c0,16.245-13.212,29.457-29.45,29.457c-16.245,0-29.457-13.212-29.457-29.457c0-16.238,13.212-29.45,29.457-29.45
	C140.003,318.729,153.215,331.94,153.215,348.178z M285.468,348.178c0,16.245-13.212,29.457-29.457,29.457
	c-16.238,0-29.45-13.212-29.45-29.457c0-16.238,13.212-29.45,29.45-29.45C272.256,318.729,285.468,331.94,285.468,348.178z
	 M388.17,377.636c-16.245,0-29.457-13.212-29.457-29.457c0-16.238,13.212-29.45,29.457-29.45c16.238,0,29.45,13.212,29.45,29.45
	C417.619,364.425,404.407,377.636,388.17,377.636z"/>
<g>
</g>
<g>
</g>
<g>
</g>
<g>
</g>
<g>
</g>
<g>
</g>
<g>
</g>
<g>
</g>
<g>
</g>
<g>
</g>
<g>
</g>
<g>
</g>
<g>
</g>
<g>
</g>
<g>
</g>
</svg>
